<?xml version="1.0" encoding="UTF-8" standalone="no"?>
<svg
   width="100.99999"
   height="101"
   version="1.1"
   id="svg13"
   xmlns="http://www.w3.org/2000/svg"
   xmlns:svg="http://www.w3.org/2000/svg">
  <defs
     id="defs13" />
  <g
     fill="#ffffff"
     id="g13"
     transform="translate(-5.1276239,-5.072469)">
    <path
       id="circle10"
       d="m 15.627625,5.572469 c -5.522848,-2e-7 -10.0000013,4.477153 -10.0000011,10 0,5.522848 4.4771531,10 10.0000011,10 h 40 v 15 30 15 h -40 c -5.522848,0 -10.0000011,4.477152 -10.0000011,10 -6e-7,5.522841 4.4771531,10.000001 10.0000011,10.000001 h 40 35 c 8.309984,0 14.999995,-6.690017 14.999995,-15.000001 v -20 c 0,-8.309984 -6.690011,-15 -14.999995,-15 8.309984,0 14.999995,-6.690016 14.999995,-15 v -20 c 0,-8.309983 -6.690011,-15 -14.999995,-15 h -15 -20 z"
       style="stroke:#000000;stroke-opacity:1" />
    <path
       id="rect5"
       d="m 74.377625,15.572469 c -2.769997,0 -5,2.230003 -5,5 v 5 12.5 5 c 0,2.769997 2.230003,5 5,5 h 5 2.5 c 5.539994,0 10,-4.460006 10,-10 v -12.5 c 0,-5.539994 -4.460006,-10 -10,-10 h -2.5 z"
       style="fill:#e43c3e;stroke:#000000;stroke-opacity:1" />
    <path
       id="rect8"
       d="m 74.377625,63.072469 c -2.769997,0 -5,2.230003 -5,5 v 5 12.5 5 c 0,2.769997 2.230003,5 5,5 h 5 2.5 c 5.539994,0 10,-4.460006 10,-10 v -12.5 c 0,-5.539995 -4.460006,-10 -10,-10 h -2.5 z"
       style="fill:#00ccff;stroke:#000000;stroke-opacity:1" />
  </g>
</svg>
