<svg xmlns="http://www.w3.org/2000/svg" width="673.2" height="767">
<g transform = "scale(.4) translate(30, 25)" >
<path fill="#1C0302" d="M -29,100 C 16,152 89,138 134,102 198,50 241,-29 255,-109 261,-146 258,-185 235,-221 208,-264 163,-271 136,-226 129,-215 122,-201 115,-184 108,-169 101,-155 95,-138 83,-103 111,-74 145,-83 154,-85 164,-89 170,-93 174,-96 178,-96 182,-94 209,-83 205,-62 190,-44 166,-16 119,-5 83,-9 32,-14 0,-36 0,-122 L -59,-12 C -59,47 -46,80 -29,100 L -29,100 " transform="translate(1338, 551)"></path>
<path fill="#1C0302" d="M -139,133 C -139,136 -128,145 -105,161 -98,166 -92,172 -86,177 -78,182 -72,185 -68,185 -53,185 -32,161 -5,114 6,121 19,131 36,146 47,157 56,162 61,162 69,162 82,151 99,128 117,105 126,85 126,69 126,54 117,39 99,23 82,8 68,0 56,0 53,0 44,11 30,32 19,47 9,61 0,76 -6,65 -17,54 -34,42 -51,30 -63,24 -71,24 -76,24 -88,41 -108,75 -129,108 -139,128 -139,133 L -139,133 " transform="translate(1519, 0)"></path>
<path fill="#1C0302" d="M 323,33 C 323,19 325,5 326,-8 326,-25 318,-27 310,-10 289,31 255,126 183,193 137,237 24,287 24,309 24,322 142,285 153,281 197,268 227,240 247,205 282,144 304,88 323,33 L 323,33 " transform="translate(1015, 396)"></path>
<path fill="#1C0302" d="M 112,-19 C 37,28 -23,92 -55,176 L 0,147 C 0,110 53,73 85,57 98,50 106,47 113,32 121,19 125,5 132,-8 144,-31 137,-34 112,-19 L 112,-19 " transform="translate(972, 61)"></path>
<path fill="#1C0302" d="M -139,-52 C -139,-49 -128,-40 -105,-23 -98,-18 -92,-13 -86,-8 -78,-3 -72,0 -68,0 -53,0 -32,-24 -5,-71 6,-64 19,-54 36,-39 47,-28 56,-23 61,-23 69,-23 82,-34 99,-57 117,-80 126,-99 126,-116 126,-130 117,-145 99,-162 82,-177 68,-185 56,-185 53,-185 44,-174 30,-153 19,-138 9,-123 0,-108 -6,-119 -17,-131 -34,-143 -51,-155 -63,-161 -71,-161 -76,-161 -88,-144 -108,-111 -129,-77 -139,-57 -139,-52 L -139,-52 " transform="translate(1060, 590)"></path>
<path fill="#1C0302" d="M 276,-245 C 253,-262 230,-228 221,-216 176,-205 126,-169 83,-126 41,-82 5,-30 0,18 -6,80 30,101 72,135 112,167 93,193 65,230 13,298 -57,336 -145,339 -382,327 -270,60 -212,-62 -200,-86 -189,-112 -178,-137 -165,-169 -176,-171 -192,-143 -243,-54 -288,39 -321,134 -364,260 -385,487 -182,487 -81,487 -11,438 41,369 92,301 122,218 146,138 165,76 172,24 108,-26 77,-50 68,-72 106,-102 134,-123 181,-160 228,-126 234,-121 242,-115 250,-109 262,-100 267,-100 282,-109 296,-118 311,-134 321,-153 327,-166 324,-173 317,-184 306,-200 276,-229 276,-245 L 276,-245 " transform="translate(696, 453)"></path>
<path fill="#1C0302" d="" transform="translate(696, 690)"></path>
<path fill="#1C0302" d="M 83,13 C 84,-2 80,-3 73,10 50,50 36,79 25,100 18,112 18,119 18,132 18,163 25,193 0,218 L 0,273 C 42,243 72,173 79,117 84,82 80,46 83,13 L 83,13 " transform="translate(1466, 1033)"></path>
<path fill="#1C0302" d="M -137,-177 C -137,-175 -126,-166 -104,-150 -82,-134 -70,-126 -67,-126 -52,-126 -31,-150 -5,-197 6,-190 19,-180 35,-165 46,-155 55,-150 60,-150 67,-150 80,-161 97,-182 115,-205 124,-225 124,-241 124,-255 115,-270 98,-286 81,-301 66,-308 54,-308 51,-308 43,-298 29,-277 19,-262 9,-248 0,-233 -6,-244 -17,-255 -33,-267 -50,-279 -62,-285 -71,-285 -75,-285 -87,-268 -107,-235 -127,-202 -137,-182 -137,-177 M -64,-52 C -64,-43 -47,-34 -31,-25 -18,-13 -3,1 4,1 11,1 22,-10 37,-32 52,-55 60,-73 60,-88 60,-101 52,-114 37,-129 22,-143 8,-150 -3,-150 -7,-150 -18,-135 -36,-104 -55,-73 -64,-55 -64,-52 L -64,-52 " transform="translate(1559, 1678)"></path>
<path fill="#1C0302" d="M 212,55 C 229,35 229,-2 212,0 205,4 202,6 196,7 184,9 184,-4 173,12 165,24 157,40 140,38 128,37 131,33 122,43 112,54 101,74 84,67 73,62 74,62 67,73 49,99 41,97 0,90 L 0,171 C 27,176 44,157 67,140 91,137 108,120 123,106 143,106 161,90 177,74 192,71 199,66 212,55 L 212,55 " transform="translate(1254, 1251)"></path>
<path fill="#1C0302" d="M 248,-143 C 270,-166 266,-208 248,-224 213,-230 196,-217 176,-186 141,-133 78,-116 32,-158 11,-178 0,-211 0,-258 L -59,-148 C -61,-79 -31,5 49,-1 109,-6 143,-52 181,-116 199,-147 213,-149 248,-143 L 248,-143 " transform="translate(1006, 1565)"></path>
<path fill="#1C0302" d="M -73,108 C -73,113 -70,117 -64,122 L -40,137 C -17,153 -3,161 1,161 10,161 21,150 36,128 51,106 59,88 59,73 59,57 51,41 35,25 19,8 2,0 -15,0 -20,0 -31,16 -48,47 -65,78 -73,99 -73,108 L -73,108 " transform="translate(1150, 1014)"></path>
<path fill="#1C0302" d="M 323,33 C 323,19 325,5 326,-8 326,-25 318,-27 310,-10 289,31 255,126 183,193 137,237 24,287 24,309 24,322 142,285 153,281 197,268 227,240 247,205 282,144 304,88 323,33 L 323,33 " transform="translate(683, 1274)"></path>
<path fill="#1C0302" d="M 761,-253 C 759,-241 756,-231 752,-220 749,-210 742,-194 733,-175 724,-156 719,-145 717,-143 710,-131 704,-126 698,-126 690,-131 684,-137 679,-137 656,-137 617,-120 572,-79 528,-38 501,2 501,15 501,26 504,33 511,38 516,42 525,47 540,53 554,58 563,63 568,66 583,77 590,97 590,128 590,170 582,218 566,273 551,327 530,374 504,414 478,452 441,491 400,517 362,544 316,556 265,556 207,556 164,536 134,498 107,459 98,412 98,374 98,324 104,277 120,229 132,190 146,152 163,115 180,79 194,50 204,28 L 236,-41 C 244,-56 252,-74 259,-74 267,-74 267,-54 264,-47 259,-34 254,-22 250,-13 247,-5 242,8 234,25 220,58 201,102 189,128 163,199 149,252 149,287 149,362 206,409 302,409 342,409 380,399 417,381 500,337 544,264 544,226 544,217 538,211 524,207 500,199 492,199 478,191 449,178 435,159 435,124 435,97 443,63 460,21 478,-20 502,-61 535,-101 561,-133 584,-160 605,-180 628,-202 667,-232 701,-251 721,-262 738,-269 750,-271 759,-271 763,-261 761,-253 L 761,-253 " transform="translate(115, 1254)"></path>
<path fill="#1C0302" d="M 230,-19 C 146,-19 68,109 68,190 68,246 113,243 166,245 202,246 227,264 227,297 227,319 219,339 213,359 208,376 222,377 233,362 254,333 273,282 273,246 273,171 238,159 171,157 136,157 117,151 117,139 117,109 169,61 202,61 214,61 228,66 230,84 232,99 232,107 240,107 282,107 322,-19 230,-19 M 262,480 C 262,471 218,424 210,424 202,424 154,490 154,499 154,513 195,552 210,552 223,552 262,494 262,480 L 262,480 262,480 262,480 262,480 L 262,480 " transform="translate(-68, 1027)"></path>
</g>
<g transform = "scale(.4)" >
<path fill="#D48817" d="M -29,100 C 16,152 89,138 134,102 198,50 241,-29 255,-109 261,-146 258,-185 235,-221 208,-264 163,-271 136,-226 129,-215 122,-201 115,-184 108,-169 101,-155 95,-138 83,-103 111,-74 145,-83 154,-85 164,-89 170,-93 174,-96 178,-96 182,-94 209,-83 205,-62 190,-44 166,-16 119,-5 83,-9 32,-14 0,-36 0,-122 L -59,-12 C -59,47 -46,80 -29,100 L -29,100 " transform="translate(1338, 551)"></path>
<path fill="#D48817" d="M -139,133 C -139,136 -128,145 -105,161 -98,166 -92,172 -86,177 -78,182 -72,185 -68,185 -53,185 -32,161 -5,114 6,121 19,131 36,146 47,157 56,162 61,162 69,162 82,151 99,128 117,105 126,85 126,69 126,54 117,39 99,23 82,8 68,0 56,0 53,0 44,11 30,32 19,47 9,61 0,76 -6,65 -17,54 -34,42 -51,30 -63,24 -71,24 -76,24 -88,41 -108,75 -129,108 -139,128 -139,133 L -139,133 " transform="translate(1519, 0)"></path>
<path fill="#D48817" d="M 323,33 C 323,19 325,5 326,-8 326,-25 318,-27 310,-10 289,31 255,126 183,193 137,237 24,287 24,309 24,322 142,285 153,281 197,268 227,240 247,205 282,144 304,88 323,33 L 323,33 " transform="translate(1015, 396)"></path>
<path fill="#D48817" d="M 112,-19 C 37,28 -23,92 -55,176 L 0,147 C 0,110 53,73 85,57 98,50 106,47 113,32 121,19 125,5 132,-8 144,-31 137,-34 112,-19 L 112,-19 " transform="translate(972, 61)"></path>
<path fill="#D48817" d="M -139,-52 C -139,-49 -128,-40 -105,-23 -98,-18 -92,-13 -86,-8 -78,-3 -72,0 -68,0 -53,0 -32,-24 -5,-71 6,-64 19,-54 36,-39 47,-28 56,-23 61,-23 69,-23 82,-34 99,-57 117,-80 126,-99 126,-116 126,-130 117,-145 99,-162 82,-177 68,-185 56,-185 53,-185 44,-174 30,-153 19,-138 9,-123 0,-108 -6,-119 -17,-131 -34,-143 -51,-155 -63,-161 -71,-161 -76,-161 -88,-144 -108,-111 -129,-77 -139,-57 -139,-52 L -139,-52 " transform="translate(1060, 590)"></path>
<path fill="#D48817" d="M 276,-245 C 253,-262 230,-228 221,-216 176,-205 126,-169 83,-126 41,-82 5,-30 0,18 -6,80 30,101 72,135 112,167 93,193 65,230 13,298 -57,336 -145,339 -382,327 -270,60 -212,-62 -200,-86 -189,-112 -178,-137 -165,-169 -176,-171 -192,-143 -243,-54 -288,39 -321,134 -364,260 -385,487 -182,487 -81,487 -11,438 41,369 92,301 122,218 146,138 165,76 172,24 108,-26 77,-50 68,-72 106,-102 134,-123 181,-160 228,-126 234,-121 242,-115 250,-109 262,-100 267,-100 282,-109 296,-118 311,-134 321,-153 327,-166 324,-173 317,-184 306,-200 276,-229 276,-245 L 276,-245 " transform="translate(696, 453)"></path>
<path fill="#D48817" d="" transform="translate(696, 690)"></path>
<path fill="#D48817" d="M 83,13 C 84,-2 80,-3 73,10 50,50 36,79 25,100 18,112 18,119 18,132 18,163 25,193 0,218 L 0,273 C 42,243 72,173 79,117 84,82 80,46 83,13 L 83,13 " transform="translate(1466, 1033)"></path>
<path fill="#D48817" d="M -137,-177 C -137,-175 -126,-166 -104,-150 -82,-134 -70,-126 -67,-126 -52,-126 -31,-150 -5,-197 6,-190 19,-180 35,-165 46,-155 55,-150 60,-150 67,-150 80,-161 97,-182 115,-205 124,-225 124,-241 124,-255 115,-270 98,-286 81,-301 66,-308 54,-308 51,-308 43,-298 29,-277 19,-262 9,-248 0,-233 -6,-244 -17,-255 -33,-267 -50,-279 -62,-285 -71,-285 -75,-285 -87,-268 -107,-235 -127,-202 -137,-182 -137,-177 M -64,-52 C -64,-43 -47,-34 -31,-25 -18,-13 -3,1 4,1 11,1 22,-10 37,-32 52,-55 60,-73 60,-88 60,-101 52,-114 37,-129 22,-143 8,-150 -3,-150 -7,-150 -18,-135 -36,-104 -55,-73 -64,-55 -64,-52 L -64,-52 " transform="translate(1559, 1678)"></path>
<path fill="#D48817" d="M 212,55 C 229,35 229,-2 212,0 205,4 202,6 196,7 184,9 184,-4 173,12 165,24 157,40 140,38 128,37 131,33 122,43 112,54 101,74 84,67 73,62 74,62 67,73 49,99 41,97 0,90 L 0,171 C 27,176 44,157 67,140 91,137 108,120 123,106 143,106 161,90 177,74 192,71 199,66 212,55 L 212,55 " transform="translate(1254, 1251)"></path>
<path fill="#D48817" d="M 248,-143 C 270,-166 266,-208 248,-224 213,-230 196,-217 176,-186 141,-133 78,-116 32,-158 11,-178 0,-211 0,-258 L -59,-148 C -61,-79 -31,5 49,-1 109,-6 143,-52 181,-116 199,-147 213,-149 248,-143 L 248,-143 " transform="translate(1006, 1565)"></path>
<path fill="#D48817" d="M -73,108 C -73,113 -70,117 -64,122 L -40,137 C -17,153 -3,161 1,161 10,161 21,150 36,128 51,106 59,88 59,73 59,57 51,41 35,25 19,8 2,0 -15,0 -20,0 -31,16 -48,47 -65,78 -73,99 -73,108 L -73,108 " transform="translate(1150, 1014)"></path>
<path fill="#D48817" d="M 323,33 C 323,19 325,5 326,-8 326,-25 318,-27 310,-10 289,31 255,126 183,193 137,237 24,287 24,309 24,322 142,285 153,281 197,268 227,240 247,205 282,144 304,88 323,33 L 323,33 " transform="translate(683, 1274)"></path>
<path fill="#D48817" d="M 761,-253 C 759,-241 756,-231 752,-220 749,-210 742,-194 733,-175 724,-156 719,-145 717,-143 710,-131 704,-126 698,-126 690,-131 684,-137 679,-137 656,-137 617,-120 572,-79 528,-38 501,2 501,15 501,26 504,33 511,38 516,42 525,47 540,53 554,58 563,63 568,66 583,77 590,97 590,128 590,170 582,218 566,273 551,327 530,374 504,414 478,452 441,491 400,517 362,544 316,556 265,556 207,556 164,536 134,498 107,459 98,412 98,374 98,324 104,277 120,229 132,190 146,152 163,115 180,79 194,50 204,28 L 236,-41 C 244,-56 252,-74 259,-74 267,-74 267,-54 264,-47 259,-34 254,-22 250,-13 247,-5 242,8 234,25 220,58 201,102 189,128 163,199 149,252 149,287 149,362 206,409 302,409 342,409 380,399 417,381 500,337 544,264 544,226 544,217 538,211 524,207 500,199 492,199 478,191 449,178 435,159 435,124 435,97 443,63 460,21 478,-20 502,-61 535,-101 561,-133 584,-160 605,-180 628,-202 667,-232 701,-251 721,-262 738,-269 750,-271 759,-271 763,-261 761,-253 L 761,-253 " transform="translate(115, 1254)"></path>
<path fill="#D48817" d="M 230,-19 C 146,-19 68,109 68,190 68,246 113,243 166,245 202,246 227,264 227,297 227,319 219,339 213,359 208,376 222,377 233,362 254,333 273,282 273,246 273,171 238,159 171,157 136,157 117,151 117,139 117,109 169,61 202,61 214,61 228,66 230,84 232,99 232,107 240,107 282,107 322,-19 230,-19 M 262,480 C 262,471 218,424 210,424 202,424 154,490 154,499 154,513 195,552 210,552 223,552 262,494 262,480 L 262,480 262,480 262,480 262,480 L 262,480 " transform="translate(-68, 1027)"></path>
</g>
</svg>